<svg xmlns="http://www.w3.org/2000/svg" width="900" height="420" viewBox="0 0 900 420">
<rect width="900" height="420" rx="28" fill="#f8fafc"/>
<text x="450" y="42" text-anchor="middle" font-family="Arial" font-size="28" font-weight="700" fill="#111827">Cuerda por intervalos</text>
<g transform="translate(80,70)"><circle cx="140" cy="55" r="25" fill="#f1b38f"/><path d="M140 82v105" stroke="#111827" stroke-width="30" stroke-linecap="round"/><path d="M140 110l-55 65M140 110l55 65" stroke="#111827" stroke-width="18" stroke-linecap="round"/><path d="M130 185l-30 115M150 185l35 115" stroke="#111827" stroke-width="22" stroke-linecap="round"/></g>
<path d="M425 210h55" stroke="#ff3f86" stroke-width="12" stroke-linecap="round"/><path d="M465 190l25 20-25 20" fill="none" stroke="#ff3f86" stroke-width="12" stroke-linecap="round" stroke-linejoin="round"/>
<g transform="translate(510,70)"><circle cx="140" cy="55" r="25" fill="#f1b38f"/><path d="M140 82v105" stroke="#111827" stroke-width="30"/><path d="M140 115l-65 45M140 115l65 45" stroke="#111827" stroke-width="18"/><path d="M130 185l-20 115M150 185l20 115" stroke="#111827" stroke-width="22"/><path d="M75 160C20 200 30 330 140 330s120-130 65-170" fill="none" stroke="#3b82f6" stroke-width="7"/></g>
<text x="225" y="390" text-anchor="middle" font-family="Arial" font-size="20" fill="#475569">Posición inicial</text>
<text x="675" y="390" text-anchor="middle" font-family="Arial" font-size="20" fill="#475569">Movimiento</text>
</svg>